<svg version="1.1" id="Layer_1" xmlns="http://www.w3.org/2000/svg" xmlns:xlink="http://www.w3.org/1999/xlink" x="0px" y="0px"
	 width="100%" viewBox="0 0 500 500" enable-background="new 0 0 500 500" xml:space="preserve">
<path fill="none" opacity="1.000000" stroke="none" 
	d="
M454.000000,501.000000 
	C304.166687,501.000000 154.833389,500.983643 5.500176,501.093994 
	C1.751008,501.096771 0.903619,500.249725 0.906112,496.500061 
	C1.014955,332.833496 1.014940,169.166840 0.906175,5.500288 
	C0.903684,1.751448 1.749872,0.903597 5.499834,0.906091 
	C169.166382,1.014958 332.833038,1.014936 496.499603,0.906196 
	C500.248138,0.903706 501.096466,1.749472 501.093964,5.499715 
	C500.985077,169.166260 500.985077,332.832916 501.093781,496.499481 
	C501.096252,500.247742 500.261139,501.172394 496.498566,501.102997 
	C482.503174,500.844849 468.500153,501.000000 454.000000,501.000000 
z"/>
<path fill="#FAFAFA" opacity="1.000000" stroke="none" 
	d="
M176.581726,242.468567 
	C177.677551,255.594437 177.430710,268.786591 176.812164,281.892578 
	C176.552200,287.401031 170.731110,283.798767 167.541641,284.322296 
	C165.899948,284.591797 162.053467,286.601776 162.051636,281.898804 
	C162.044250,262.915436 162.066101,243.932037 162.021194,224.948776 
	C162.016769,223.072891 162.557831,222.148422 164.562317,222.272766 
	C166.221054,222.375656 167.891388,222.289978 169.556595,222.289932 
	C184.755539,222.289505 184.630890,222.350861 191.347992,236.024261 
	C195.850067,245.188736 200.767792,254.149017 205.572083,263.339447 
	C207.171631,262.443390 206.542160,261.229095 206.530960,260.215271 
	C206.404083,248.729523 206.314011,237.242920 206.083237,225.759171 
	C206.033417,223.279572 206.631744,222.327545 209.360779,222.214233 
	C221.275620,221.719528 221.271423,221.618362 221.271439,233.519653 
	C221.271454,249.172592 221.176193,264.826569 221.348434,280.477631 
	C221.384766,283.780579 220.456284,284.781128 217.177902,284.599091 
	C212.197601,284.322601 207.190338,284.492706 202.195236,284.543488 
	C200.470459,284.561005 199.026154,284.516968 198.075821,282.625214 
	C191.536331,269.607452 184.907684,256.634491 178.153473,243.323898 
	C177.999237,243.000671 177.713715,242.778519 177.559174,242.691071 
	C177.404633,242.603622 177.376678,242.256302 177.200043,242.246063 
	C177.023422,242.235825 176.758759,242.471100 176.581726,242.468567 
z"/>
<path fill="#F7F7F7" opacity="1.000000" stroke="none" 
	d="
M126.869057,228.182068 
	C126.869011,238.483749 126.915977,248.308762 126.856178,258.133118 
	C126.791702,268.724457 124.088379,278.294250 113.390015,282.665192 
	C102.152550,287.256348 90.726952,286.953583 80.881927,279.029816 
	C76.466171,275.475800 73.950890,270.037231 73.836136,264.102356 
	C73.585144,251.121033 73.592316,238.134872 73.424522,225.151596 
	C73.396957,223.018280 74.145271,222.021301 76.320984,222.281174 
	C76.485123,222.300781 76.654030,222.289780 76.820183,222.281784 
	C90.772690,221.608978 90.755821,221.608917 90.778877,235.553833 
	C90.793182,244.211578 90.695396,252.874695 90.970833,261.525116 
	C91.187241,268.321777 94.280762,271.252808 100.397400,271.220306 
	C106.148674,271.189789 109.810867,267.709595 109.929901,261.391876 
	C110.149452,249.739471 110.148239,238.078857 109.972351,226.425674 
	C109.923454,223.185486 110.732048,221.877609 114.089645,222.231400 
	C116.560028,222.491684 119.122910,222.576538 121.568413,222.218842 
	C126.127159,221.552048 127.647079,223.417297 126.869057,228.182068 
z"/>
<path fill="#F8F8F8" opacity="1.000000" stroke="none" 
	d="
M391.833618,250.252090 
	C387.000946,241.009506 382.283203,232.123123 377.063538,222.291306 
	C383.284729,222.291306 388.507721,222.315353 393.730286,222.277481 
	C395.421539,222.265228 395.988617,223.448685 396.540161,224.668457 
	C399.478455,231.166931 402.397278,237.674179 405.554626,244.693695 
	C409.906189,238.815063 411.638855,231.992432 414.830994,225.940109 
	C416.284821,223.183655 417.712646,221.719147 420.812988,222.279953 
	C420.974304,222.309143 421.146820,222.270142 421.311951,222.285721 
	C425.511047,222.681961 429.805481,221.425369 433.935699,223.012833 
	C432.172394,226.725250 430.532104,230.502579 428.615509,234.134094 
	C426.064026,238.968597 423.651672,243.935562 420.546722,248.406113 
	C414.814697,256.659088 413.744446,265.698303 414.220093,275.401733 
	C414.666931,284.517181 414.315826,284.534363 405.283447,284.534332 
	C397.353638,284.534332 397.353607,284.534363 397.353577,276.718781 
	C397.353577,275.552551 397.262695,274.377991 397.368164,273.221375 
	C398.111725,265.066650 397.155518,257.331573 391.833618,250.252090 
z"/>
<path fill="#FAFAFA" opacity="1.000000" stroke="none" 
	d="
M311.182495,222.289703 
	C323.823364,222.289703 335.988434,222.379196 348.150452,222.227142 
	C351.212616,222.188873 352.521027,222.729843 352.506256,226.230560 
	C352.465240,235.956116 352.621796,236.331329 343.035126,235.811539 
	C337.748352,235.524902 336.841309,237.286896 336.971191,242.096710 
	C337.317474,254.917831 337.004913,267.755432 337.152771,280.584167 
	C337.186371,283.500610 336.649231,284.590668 333.388031,284.620514 
	C320.573364,284.737762 320.574615,284.872955 320.574615,272.138397 
	C320.574615,261.640747 320.351074,251.135956 320.685974,240.649002 
	C320.817627,236.526123 319.396759,235.377731 315.692596,235.945526 
	C315.041382,236.045334 314.361725,235.959686 313.695221,235.959671 
	C305.095337,235.959473 305.471497,235.937531 304.974182,227.419601 
	C304.684387,222.456863 306.784424,221.750900 311.182495,222.289703 
z"/>
<path fill="#F7F7F7" opacity="1.000000" stroke="none" 
	d="
M257.042023,272.974243 
	C257.042053,257.152649 257.119263,241.825073 256.977448,226.499542 
	C256.948822,223.404800 257.523895,222.192947 261.000214,222.187210 
	C273.882324,222.165985 273.882141,222.022736 273.882111,235.106003 
	C273.882111,250.266251 273.805817,265.427216 273.947479,280.586151 
	C273.975220,283.552856 273.325073,285.045929 270.128571,284.551025 
	C269.477783,284.450287 268.798035,284.535980 268.131653,284.536652 
	C257.042023,284.547729 257.042023,284.547791 257.042023,272.974243 
z"/>
<path fill="#737373" opacity="1.000000" stroke="none" 
	d="
M176.980377,241.822815 
	C177.537857,241.955673 177.793961,242.201950 178.024658,242.724457 
	C177.726883,242.931274 177.454514,242.861877 176.793427,242.629242 
	C176.404694,242.466019 176.285370,242.473404 176.248505,242.426361 
	C176.367447,242.231613 176.523239,242.083908 176.980377,241.822815 
z"/>
<path fill="#737373" opacity="1.000000" stroke="none" 
	d="
M176.495758,242.238297 
	C176.086945,241.746582 175.708801,240.936646 177.130981,241.494781 
	C177.114456,241.838684 176.947159,241.967987 176.495758,242.238297 
z"/>
</svg>